<svg xmlns="http://www.w3.org/2000/svg" width="1400" height="560" viewBox="0 0 1400 560">
  <defs>
    <linearGradient id="bgGrad" x1="0%" y1="0%" x2="100%" y2="0%">
      <stop offset="0%" style="stop-color:#1a73e8;stop-opacity:1" />
      <stop offset="50%" style="stop-color:#1e88e5;stop-opacity:1" />
      <stop offset="100%" style="stop-color:#34a853;stop-opacity:1" />
    </linearGradient>
    <filter id="shadow">
      <feDropShadow dx="0" dy="6" stdDeviation="16" flood-opacity="0.3"/>
    </filter>
  </defs>

  <!-- Background -->
  <rect width="1400" height="560" fill="url(#bgGrad)"/>

  <!-- Left side - Icon and branding -->
  <g transform="translate(100, 140)">
    <!-- Large icon -->
    <rect width="280" height="280" rx="56" fill="#ffffff" opacity="0.95" filter="url(#shadow)"/>
    <!-- Magnifying glass handle -->
    <rect x="199" y="199" width="16" height="67" rx="8" fill="#1a73e8" transform="rotate(45 207 232.5)"/>
    <!-- Magnifying glass circle -->
    <circle cx="154" cy="154" r="59" fill="none" stroke="#1a73e8" stroke-width="12.6"/>
    <!-- Code brackets -->
    <g transform="translate(154, 154)">
      <path d="M -21,-25 L -34,-25 L -34,25 L -21,25" fill="none" stroke="#1a73e8" stroke-width="6.3" stroke-linecap="round"/>
      <path d="M 21,-25 L 34,-25 L 34,25 L 21,25" fill="none" stroke="#1a73e8" stroke-width="6.3" stroke-linecap="round"/>
      <circle cx="0" cy="-12.6" r="3.15" fill="#1a73e8"/>
      <circle cx="0" cy="0" r="3.15" fill="#1a73e8"/>
      <circle cx="0" cy="12.6" r="3.15" fill="#1a73e8"/>
    </g>
    <!-- Checkmark -->
    <circle cx="235" cy="101" r="29.4" fill="#34a853"/>
    <path d="M 222.6,101 L 231,109.4 L 247.4,93" fill="none" stroke="#ffffff" stroke-width="6.3" stroke-linecap="round" stroke-linejoin="round"/>
  </g>

  <!-- Right side - Content -->
  <g transform="translate(480, 0)">
    <!-- Main title -->
    <text x="0" y="120" font-family="Arial, sans-serif" font-size="72" font-weight="bold" fill="#ffffff">
      F19N SEO Live Test
    </text>

    <!-- Tagline -->
    <text x="0" y="180" font-family="Arial, sans-serif" font-size="32" fill="#ffffff" opacity="0.95">
      Professional SEO Testing &amp; Analysis
    </text>

    <!-- Features list -->
    <g transform="translate(0, 240)" font-family="Arial, sans-serif" fill="#ffffff">
      <!-- Feature 1 -->
      <g>
        <rect x="0" y="-8" width="380" height="50" rx="8" fill="#ffffff" opacity="0.15"/>
        <text x="20" y="25" font-size="24" font-weight="600">
          🔍 100+ Real-time Checks
        </text>
      </g>

      <!-- Feature 2 -->
      <g transform="translate(400, 0)">
        <rect x="0" y="-8" width="380" height="50" rx="8" fill="#ffffff" opacity="0.15"/>
        <text x="20" y="25" font-size="24" font-weight="600">
          ⚡ PageSpeed Insights
        </text>
      </g>

      <!-- Feature 3 -->
      <g transform="translate(0, 70)">
        <rect x="0" y="-8" width="380" height="50" rx="8" fill="#ffffff" opacity="0.15"/>
        <text x="20" y="25" font-size="24" font-weight="600">
          📊 Search Console Data
        </text>
      </g>

      <!-- Feature 4 -->
      <g transform="translate(400, 70)">
        <rect x="0" y="-8" width="380" height="50" rx="8" fill="#ffffff" opacity="0.15"/>
        <text x="20" y="25" font-size="24" font-weight="600">
          🎯 Side Panel Interface
        </text>
      </g>
    </g>

    <!-- Bottom badge -->
    <g transform="translate(0, 450)">
      <text x="0" y="0" font-size="20" fill="#ffffff" opacity="0.9">
        ✓ Free  •  ✓ Open Source  •  ✓ Privacy Focused
      </text>
    </g>
  </g>

  <!-- Decorative elements -->
  <circle cx="1250" cy="450" r="100" fill="#ffffff" opacity="0.08"/>
  <circle cx="1320" cy="120" r="60" fill="#ffffff" opacity="0.08"/>
  <circle cx="50" cy="50" r="40" fill="#ffffff" opacity="0.1"/>
</svg>
